<?xml version="1.0" standalone="no"?>
<!DOCTYPE svg PUBLIC "-//W3C//DTD SVG 20010904//EN"
 "http://www.w3.org/TR/2001/REC-SVG-20010904/DTD/svg10.dtd">
<svg version="1.0" xmlns="http://www.w3.org/2000/svg"
 width="1200.000000pt" height="900.000000pt" viewBox="0 0 1200.000000 900.000000"
 preserveAspectRatio="xMidYMid meet">

<g transform="translate(0.000000,900.000000) scale(0.100000,-0.100000)"
fill="#000000" stroke="none">
<path d="M3160 8996 c0 -3 15 -35 34 -73 89 -175 214 -458 303 -683 35 -91 78
-199 95 -240 17 -41 43 -111 59 -155 15 -44 34 -98 42 -120 9 -22 18 -85 22
-140 5 -82 3 -116 -14 -190 -38 -169 -61 -333 -71 -497 -5 -89 -15 -224 -22
-298 -7 -74 -13 -182 -12 -240 0 -92 3 -113 28 -170 16 -36 56 -108 91 -160
83 -126 116 -194 159 -326 20 -61 49 -130 65 -155 15 -24 83 -93 149 -153 67
-61 156 -152 198 -204 89 -108 149 -162 178 -162 35 0 148 62 188 103 l38 39
11 -29 c72 -170 157 -313 266 -448 27 -33 66 -90 86 -127 63 -112 380 -525
447 -582 134 -112 293 -88 366 56 l25 49 39 -58 c22 -32 57 -80 77 -108 92
-122 262 -141 356 -40 40 44 60 115 56 204 -4 67 -8 85 -37 131 -18 29 -31 53
-30 54 2 1 29 10 60 19 95 29 169 122 184 228 9 68 -11 144 -66 249 -72 137
-160 309 -160 313 0 2 22 2 48 -1 122 -11 214 109 198 259 -3 31 -17 94 -32
140 -41 131 -185 510 -249 654 -72 164 -138 357 -160 466 -57 286 -179 563
-426 969 -127 209 -178 280 -281 391 -132 143 -144 161 -234 347 -46 95 -84
175 -84 177 0 4 -32 73 -148 325 -16 36 -40 93 -53 127 -24 62 -24 63 -63 63
-32 0 -37 -3 -31 -17 4 -10 16 -40 27 -68 48 -122 332 -730 376 -804 19 -32
85 -115 147 -184 123 -136 168 -198 300 -418 216 -355 340 -631 390 -864 41
-191 84 -320 178 -535 75 -174 267 -688 267 -717 0 -3 -18 11 -40 31 -51 46
-113 51 -152 11 -31 -31 -53 -103 -45 -151 3 -20 3 -34 0 -30 -8 8 -78 194
-108 286 -32 103 -46 133 -130 301 -80 158 -118 255 -165 417 -25 85 -30 121
-30 208 0 58 -4 103 -9 100 -12 -8 -39 -110 -46 -176 -11 -97 76 -354 203
-603 48 -94 97 -207 120 -280 71 -218 171 -458 278 -664 57 -111 104 -210 104
-220 -1 -16 -2 -16 -12 2 -45 80 -118 134 -181 135 -15 0 -46 -9 -68 -21 -49
-24 -69 -66 -69 -141 l0 -53 -93 171 c-58 107 -106 213 -131 285 -21 63 -59
152 -84 199 -123 231 -235 458 -258 526 -13 41 -34 125 -45 187 -11 62 -29
141 -41 177 -21 63 -22 64 -30 35 -4 -16 -8 -50 -9 -75 -1 -58 37 -268 62
-343 22 -66 175 -377 250 -507 26 -47 67 -139 90 -205 46 -135 258 -559 348
-695 77 -116 78 -119 45 -89 -45 41 -88 59 -144 59 -97 0 -160 -56 -163 -146
-2 -39 -4 -42 -15 -27 -17 24 -80 133 -154 268 -56 103 -151 249 -288 442 -32
46 -72 120 -91 165 -85 214 -156 376 -230 522 -94 186 -119 226 -170 283 -21
22 -58 69 -83 103 -39 52 -46 58 -46 38 0 -50 40 -140 83 -188 72 -80 236
-406 356 -708 55 -138 79 -183 143 -272 48 -68 157 -231 214 -320 12 -19 41
-69 64 -110 l42 -75 -34 31 c-44 42 -69 54 -113 54 -117 0 -195 -125 -146
-235 12 -27 19 -50 17 -52 -2 -2 -17 13 -32 34 -16 21 -63 81 -105 133 -136
171 -238 309 -280 383 -23 39 -78 119 -122 175 -88 115 -161 235 -207 343 -39
93 -148 293 -208 382 -219 326 -263 381 -374 472 -145 119 -280 262 -333 353
-26 45 -49 82 -51 82 -1 0 2 -16 8 -36 15 -55 82 -188 123 -244 35 -48 157
-163 243 -229 70 -54 314 -390 400 -551 40 -74 40 -76 26 -115 -7 -22 -14 -41
-14 -42 -1 -13 -19 3 -35 29 -27 46 -94 117 -127 134 -33 17 -107 22 -166 10
-42 -8 -43 -7 -104 52 l-61 59 35 17 c39 19 85 62 75 72 -3 4 -38 -1 -78 -10
-94 -21 -116 -20 -129 5 -7 11 -10 22 -8 23 2 2 32 11 68 21 36 9 79 25 95 34
30 16 30 16 -54 19 -46 2 -98 -2 -114 -8 -38 -13 -39 -11 -73 100 -31 100 -83
207 -157 322 -105 160 -133 247 -117 361 11 78 28 285 40 492 13 216 48 396
115 593 30 89 55 167 55 174 0 16 -58 -40 -66 -64 -10 -34 -24 -18 -24 30 -1
26 -7 63 -14 82 -8 19 -36 96 -64 170 -124 339 -241 620 -384 928 l-81 172
-38 0 c-22 0 -39 -2 -39 -4z m3291 -3615 c13 -10 34 -37 47 -59 l22 -40 -26
-21 c-31 -25 -62 -34 -95 -29 -22 3 -24 9 -27 61 -2 41 2 66 13 83 19 29 34
30 66 5z m-2013 -108 c15 -11 42 -39 59 -62 31 -40 32 -44 18 -70 -24 -47 -43
-47 -92 1 -48 47 -123 140 -123 153 0 15 111 -2 138 -22z m2100 -75 c-21 -32
-76 -68 -103 -68 -13 0 -33 8 -46 18 l-22 19 57 6 c31 3 71 15 89 25 41 26 42
26 25 0z m-136 -540 c29 -31 88 -125 88 -140 0 -14 -150 -79 -177 -76 -33 4
-55 58 -57 144 -1 78 18 104 77 104 31 0 45 -6 69 -32z m77 -248 c-19 -16 -49
-36 -67 -45 -39 -19 -113 -17 -120 4 -3 10 0 12 12 8 20 -8 131 26 171 52 42
29 45 16 4 -19z m-738 -187 c74 -80 74 -93 1 -146 -49 -36 -99 -52 -118 -39
-20 13 -54 90 -54 122 0 63 34 99 95 100 35 0 46 -6 76 -37z m477 -33 c32 -20
92 -102 92 -126 0 -20 -81 -83 -120 -95 -61 -18 -82 -10 -112 46 -32 57 -36
119 -12 153 31 45 99 54 152 22z m-414 -147 c-11 -15 -32 -35 -46 -46 -31 -23
-108 -34 -134 -18 -15 8 -8 10 37 11 59 0 92 17 133 68 25 32 34 18 10 -15z
m526 -83 c-26 -50 -67 -72 -128 -68 -44 3 -45 4 -17 11 49 13 116 49 133 74
27 36 34 26 12 -17z"/>
<path d="M6286 5677 c-53 -30 -57 -47 -11 -47 36 0 125 43 125 61 0 17 -75 8
-114 -14z"/>
<path d="M5903 5679 c-37 -11 -103 -69 -103 -91 0 -12 20 -8 93 22 50 20 103
43 117 50 23 12 24 14 5 21 -26 10 -73 9 -112 -2z"/>
<path d="M8118 5609 c-138 -33 -199 -151 -150 -291 30 -85 124 -222 217 -318
148 -152 267 -303 340 -432 81 -142 148 -238 254 -363 90 -106 111 -134 111
-153 0 -9 -16 -1 -42 20 -24 20 -92 64 -153 98 -60 35 -143 89 -183 121 -40
32 -94 71 -120 85 -163 94 -294 175 -497 310 -126 83 -257 164 -291 178 -157
65 -289 39 -358 -71 -83 -130 8 -309 231 -454 191 -125 233 -155 320 -226 48
-40 127 -103 174 -140 48 -38 116 -96 152 -130 78 -73 149 -122 279 -192 139
-74 256 -167 236 -186 -2 -2 -58 -8 -125 -14 -159 -13 -228 -33 -272 -80 -53
-55 -91 -145 -91 -213 0 -51 5 -63 47 -125 25 -37 66 -92 91 -121 45 -53 45
-53 24 -68 -33 -23 -71 -95 -78 -146 -9 -61 25 -170 67 -221 30 -36 259 -196
340 -237 21 -11 70 -25 109 -32 64 -11 78 -18 131 -64 65 -56 184 -132 299
-189 140 -70 295 -158 430 -245 185 -120 225 -141 376 -199 143 -55 199 -70
255 -71 19 0 63 -9 98 -21 58 -20 74 -33 234 -193 95 -94 224 -216 287 -271
112 -98 351 -332 440 -430 77 -85 112 -134 104 -146 -4 -7 -3 -9 4 -6 5 4 27
-16 48 -45 42 -56 180 -224 238 -288 34 -38 41 -41 80 -38 l44 3 -105 120
c-57 66 -145 174 -195 240 -162 213 -352 417 -528 565 -63 54 -209 190 -325
304 -115 114 -227 216 -248 227 -36 19 -38 21 -24 42 7 12 21 33 30 47 8 14
28 63 42 110 15 47 42 112 60 146 18 33 36 76 39 95 7 33 6 33 -59 -36 -61
-64 -68 -77 -95 -166 -34 -108 -61 -155 -105 -180 -26 -14 -38 -15 -100 -4
-155 27 -347 118 -610 287 -57 38 -190 113 -295 168 -173 90 -330 183 -330
194 0 2 35 4 78 3 95 -1 133 14 200 80 38 36 52 58 57 88 10 61 11 62 43 57
29 -4 30 -6 35 -70 6 -81 41 -199 69 -232 l20 -25 -7 80 c-3 44 -9 112 -13
150 -10 96 -6 108 34 130 20 11 44 29 54 42 21 28 26 28 33 6 3 -10 21 -72 41
-138 32 -110 112 -295 126 -295 3 0 3 28 0 63 -7 60 -27 140 -75 295 -12 40
-19 71 -16 70 14 -6 79 -85 121 -148 48 -70 116 -142 223 -232 104 -88 202
-107 326 -64 45 15 180 108 165 113 -5 2 -52 -11 -104 -28 -112 -36 -202 -47
-255 -29 -36 12 -101 65 -209 168 -26 26 -79 90 -116 143 -41 56 -105 129
-160 179 -58 53 -112 115 -151 172 -87 130 -89 122 22 114 148 -11 280 15 344
68 20 17 20 17 -1 11 -65 -17 -197 -24 -322 -15 -208 15 -202 13 -202 61 0 22
12 85 26 140 14 56 23 103 21 106 -8 7 -67 -75 -89 -126 -14 -31 -20 -66 -20
-116 l0 -73 -77 -13 c-96 -18 -105 -16 -207 31 l-84 39 14 -28 c18 -35 91
-101 111 -101 25 0 17 -13 -38 -68 -43 -42 -68 -57 -137 -82 -81 -28 -149 -37
-197 -24 -22 6 -22 6 6 43 39 49 44 82 26 174 -21 112 -19 163 8 211 13 23 39
81 58 130 58 150 126 196 291 196 56 0 99 7 155 25 43 15 139 35 213 46 81 12
178 34 243 55 91 30 119 36 172 32 53 -3 72 -9 107 -36 24 -18 140 -82 258
-142 118 -59 241 -126 272 -147 77 -51 181 -154 214 -211 45 -78 101 -149 146
-186 24 -19 90 -72 148 -118 142 -111 333 -264 391 -313 157 -131 351 -296
394 -335 46 -42 203 -166 233 -184 9 -5 12 4 12 36 -1 42 -3 45 -83 106 -45
34 -107 85 -137 113 -30 27 -98 84 -150 127 -52 42 -104 85 -115 95 -78 72
-408 339 -622 504 -60 46 -78 68 -158 188 -61 93 -143 175 -235 235 -69 46
-144 120 -213 210 -128 169 -218 269 -444 490 -238 233 -360 361 -483 509 -30
36 -88 104 -128 151 -41 47 -90 110 -110 140 -19 30 -92 112 -161 181 -69 69
-162 164 -206 211 -44 46 -100 100 -124 119 -25 19 -101 83 -170 143 -69 60
-144 117 -166 127 -51 22 -129 30 -177 18z m162 -86 c14 -9 69 -55 124 -102
54 -47 136 -116 182 -153 46 -38 122 -112 170 -165 47 -54 109 -118 138 -143
80 -70 114 -108 173 -192 30 -43 89 -117 131 -166 43 -48 97 -112 122 -142 98
-119 257 -290 359 -385 218 -205 369 -362 469 -489 56 -72 98 -132 92 -134
-11 -4 -209 104 -275 149 -54 37 -117 53 -189 45 -53 -5 -57 -4 -50 12 11 25
17 112 7 112 -10 0 -78 -104 -91 -141 -7 -17 -22 -29 -49 -37 -56 -17 -181
-37 -188 -30 -3 3 -1 34 5 69 11 74 13 162 3 210 -6 29 -12 11 -47 -130 l-41
-165 -65 -16 c-36 -9 -74 -19 -85 -23 -17 -6 -23 -1 -33 27 -16 44 -102 175
-132 201 l-23 20 6 -20 c3 -11 9 -36 12 -55 4 -19 25 -68 46 -109 21 -40 36
-77 33 -82 -3 -5 -38 -9 -78 -9 -40 0 -93 -6 -117 -13 -63 -19 -166 -11 -180
14 -8 16 -2 30 34 77 59 76 104 167 123 248 8 37 13 68 11 71 -8 7 -68 -76
-94 -130 -14 -28 -45 -82 -70 -120 l-45 -67 -39 27 c-21 16 -39 32 -39 36 0 4
12 35 26 68 14 34 24 70 22 82 -3 20 -5 19 -41 -12 -21 -19 -44 -49 -52 -67
l-14 -33 -112 60 c-123 67 -194 116 -253 177 -38 40 -39 42 -33 98 4 40 22 90
58 166 29 59 50 110 47 113 -3 3 -25 -9 -49 -27 -52 -39 -105 -136 -115 -209
-4 -27 -8 -49 -10 -49 -4 0 -48 34 -217 171 -108 86 -174 134 -277 198 -129
81 -184 126 -227 189 -77 109 -81 174 -16 237 40 39 82 50 155 42 77 -9 155
-51 384 -204 115 -77 286 -186 379 -241 94 -55 201 -126 240 -156 38 -31 118
-83 176 -116 59 -33 136 -84 171 -114 l63 -55 24 22 c13 12 34 39 47 59 29 46
93 94 194 147 70 37 137 91 113 91 -18 0 -146 -41 -178 -57 -16 -8 -56 -35
-88 -60 -32 -25 -59 -44 -61 -42 -1 2 -10 16 -19 31 -9 15 -55 72 -103 128
-104 122 -204 266 -204 294 0 13 42 61 115 131 63 61 115 113 115 117 0 9 -64
-14 -116 -40 -21 -11 -66 -48 -98 -81 l-60 -61 -38 61 c-45 70 -132 182 -197
252 l-45 48 19 36 c11 20 57 70 103 112 90 81 90 96 2 61 -74 -29 -104 -53
-142 -111 l-33 -51 -38 43 c-60 69 -127 169 -159 234 -52 110 -33 185 56 227
48 22 134 18 176 -9z m454 -2180 c-19 -31 -46 -95 -61 -141 -28 -84 -28 -85
-120 -163 -75 -65 -94 -87 -103 -119 -7 -27 -15 -38 -23 -34 -43 25 -100 82
-149 151 -51 70 -58 86 -58 127 0 50 23 104 65 154 21 25 40 34 98 46 71 15
233 31 334 34 l52 2 -35 -57z m-120 -415 c4 -35 9 -84 12 -109 5 -43 3 -47
-31 -78 -43 -38 -55 -33 -81 34 -26 68 -13 130 37 177 22 21 44 38 48 38 5 0
12 -28 15 -62z m741 -100 c14 -21 14 -23 -2 -25 -10 -1 -44 -5 -76 -8 -45 -5
-66 -13 -92 -36 -68 -60 -67 -135 3 -204 36 -35 34 -34 -63 20 -55 30 -115 60
-132 66 -31 10 -46 29 -23 29 6 0 34 25 63 56 71 77 97 93 169 109 97 21 134
19 153 -7z m-895 -94 c33 -67 63 -95 132 -120 57 -20 174 -20 235 0 l48 16 83
-43 83 -44 -39 -15 c-83 -32 -126 -141 -84 -210 12 -19 40 -45 64 -58 46 -26
38 -38 -14 -21 -18 6 -78 17 -133 25 -56 9 -119 22 -141 29 -46 17 -274 165
-322 210 -35 34 -72 120 -72 170 0 45 29 98 69 124 42 28 51 23 91 -63z m888
10 c17 -4 48 -21 69 -39 l37 -32 -42 -71 c-48 -81 -59 -85 -118 -46 -93 62
-114 103 -76 151 28 36 72 49 130 37z m182 -171 c0 -27 -94 -113 -124 -113 -3
0 16 33 41 74 41 65 49 72 65 62 10 -6 18 -16 18 -23z m-389 -114 c13 -7 16
-18 12 -51 -6 -52 -38 -128 -53 -128 -23 0 -111 51 -125 74 -14 22 -15 28 -1
60 24 59 103 80 167 45z m106 -75 c-4 -37 -43 -112 -53 -102 -2 2 3 26 11 53
8 26 15 61 15 76 0 22 4 27 16 22 13 -5 15 -16 11 -49z"/>
<path d="M7704 4548 c-56 -38 -95 -107 -87 -151 8 -39 22 -30 56 34 16 30 41
70 56 89 56 71 50 78 -25 28z"/>
<path d="M6000 5556 c-83 -29 -132 -55 -125 -65 12 -21 57 -21 103 -1 46 21
102 65 102 82 0 11 -6 10 -80 -16z"/>
<path d="M5621 5259 c-50 -10 -95 -47 -110 -90 -5 -16 -8 -29 -5 -29 13 0 194
113 194 121 0 11 -19 10 -79 -2z"/>
<path d="M5103 5150 c-53 -12 -107 -45 -130 -80 -40 -57 -29 -63 45 -27 37 19
99 44 137 57 89 29 96 36 49 49 -43 12 -55 12 -101 1z"/>
<path d="M5695 5090 c-38 -17 -87 -35 -109 -41 -21 -6 -50 -15 -65 -21 -24
-10 -25 -11 -6 -18 36 -15 144 -11 178 6 36 18 84 60 98 87 14 26 -13 22 -96
-13z"/>
<path d="M5244 5030 c-5 -5 -41 -21 -79 -35 -117 -44 -177 -107 -86 -90 64 12
139 55 161 93 21 34 23 51 4 32z"/>
<path d="M6243 4925 c-23 -7 -64 -26 -90 -41 l-48 -29 38 -3 c50 -4 157 50
157 80 0 10 -5 10 -57 -7z"/>
<path d="M5418 4538 c-37 -21 -61 -43 -72 -65 -21 -45 -4 -44 73 4 65 40 107
93 74 93 -10 0 -43 -15 -75 -32z"/>
<path d="M5965 4476 c-42 -19 -85 -60 -85 -80 0 -3 15 -3 33 0 45 9 111 48
131 79 16 24 16 25 -6 25 -13 0 -46 -11 -73 -24z"/>
<path d="M3280 4369 c-30 -5 -72 -21 -92 -34 -80 -53 -279 -228 -398 -351
-140 -145 -207 -225 -335 -405 -49 -68 -113 -157 -143 -197 -29 -40 -103 -148
-164 -240 -125 -188 -238 -339 -295 -394 -38 -36 -229 -179 -353 -263 -36 -25
-114 -81 -175 -125 -60 -44 -196 -140 -300 -214 -105 -73 -211 -149 -235 -168
-82 -62 -293 -193 -450 -280 -85 -47 -195 -110 -245 -140 -89 -54 -90 -55 -93
-98 l-3 -43 38 23 c21 13 139 81 263 151 284 161 446 263 580 362 58 44 114
84 125 90 11 5 117 81 235 167 118 86 244 176 280 200 152 102 369 272 425
331 33 36 119 152 190 259 157 235 435 626 519 730 142 177 508 522 585 552
98 38 233 25 412 -40 74 -27 177 -63 231 -81 85 -27 490 -186 623 -244 82 -35
172 -114 99 -87 -48 19 -44 10 26 -58 60 -58 70 -72 70 -102 0 -57 -48 -123
-188 -265 l-133 -133 -67 18 c-42 12 -151 25 -287 35 -308 22 -420 34 -497 51
-59 14 -68 19 -68 38 0 19 13 27 94 54 52 18 112 32 134 32 44 0 168 -35 177
-50 5 -8 38 -20 160 -57 l20 -6 -20 23 c-11 13 -46 42 -77 66 l-58 42 53 33
c28 17 140 74 247 125 107 52 191 94 186 94 -5 0 -53 -7 -108 -16 -132 -21
-233 -64 -396 -167 -34 -22 -66 -37 -69 -33 -4 3 -8 25 -10 49 -13 152 -55
288 -113 367 -15 20 -8 -62 18 -205 11 -60 23 -129 26 -151 l6 -41 -58 -5
c-31 -3 -93 -18 -136 -32 -86 -29 -96 -27 -96 25 0 41 -46 212 -68 255 -11 21
-37 62 -57 89 l-37 50 7 -53 c4 -29 20 -91 36 -137 44 -130 79 -345 57 -345
-5 0 -60 21 -121 46 -62 25 -149 54 -195 64 -82 18 -83 18 -66 -1 9 -10 50
-35 91 -55 40 -20 75 -40 78 -44 3 -4 -18 -10 -45 -14 -111 -15 -60 -42 115
-61 66 -8 176 -25 245 -38 156 -31 192 -35 360 -47 331 -22 417 -32 480 -52
145 -47 178 -100 166 -267 -4 -53 -9 -114 -11 -136 l-5 -40 25 50 c14 28 28
67 31 88 9 53 24 46 24 -12 0 -53 -37 -250 -50 -266 -18 -22 -90 -240 -90
-272 0 -29 -3 -33 -27 -33 -47 0 -208 37 -257 58 -49 22 -116 69 -116 82 0 4
26 10 58 12 35 3 78 15 112 32 53 27 94 56 87 62 -2 2 -35 -3 -73 -11 -80 -17
-213 -19 -266 -5 -36 10 -64 44 -111 135 l-16 30 -1 -63 c0 -35 5 -72 10 -82
9 -17 5 -22 -32 -41 -40 -21 -43 -21 -100 -5 -32 9 -99 35 -149 57 -50 22 -93
39 -95 36 -10 -10 98 -96 150 -118 31 -13 56 -27 56 -31 0 -5 -82 -8 -182 -8
-107 0 -177 -4 -168 -9 39 -22 201 -55 277 -55 46 -1 82 -3 80 -6 -72 -147
-81 -161 -159 -241 -141 -143 -460 -377 -551 -403 -79 -23 -176 -36 -279 -38
l-93 -1 60 -20 c84 -28 268 -30 342 -4 102 36 390 244 545 395 88 85 98 92
118 82 21 -11 21 -12 3 -32 -53 -59 -446 -411 -521 -468 -163 -122 -368 -210
-489 -210 l-43 0 0 38 c0 56 -10 58 -40 6 -24 -42 -34 -49 -118 -84 -198 -82
-483 -300 -750 -577 -103 -107 -337 -339 -521 -516 l-333 -322 47 -3 c48 -3
49 -2 121 69 47 47 76 69 85 64 7 -5 10 -4 5 3 -8 13 73 84 87 75 6 -3 7 -1 3
5 -3 6 57 72 136 149 79 76 213 210 298 298 336 348 434 433 735 632 22 14 76
41 120 58 64 26 96 33 160 34 107 2 215 33 333 93 186 96 338 220 694 565 l67
65 88 -35 c200 -80 250 -83 356 -18 36 22 82 48 104 59 21 11 69 47 107 81 38
34 76 61 85 61 73 0 135 49 170 135 l24 58 -18 54 c-18 52 -18 56 -2 65 50 27
141 115 168 161 29 50 30 55 26 144 -5 83 -3 93 15 110 38 33 61 102 66 200 4
85 3 97 -22 147 -15 30 -56 84 -92 120 l-65 65 26 50 c31 62 32 111 3 188 -58
154 -87 175 -429 313 -151 61 -357 140 -459 174 -102 35 -210 73 -240 84 -121
46 -228 59 -340 41z m1462 -976 c62 -65 79 -96 92 -170 7 -44 -4 -41 -44 7
-18 22 -35 39 -37 37 -2 -2 10 -42 27 -88 19 -50 29 -93 25 -106 -5 -22 -155
-143 -175 -143 -5 0 -14 19 -20 43 -23 86 -41 135 -70 181 -16 25 -33 46 -37
46 -5 1 -19 10 -32 21 l-25 20 110 110 c60 60 111 109 115 109 3 0 35 -30 71
-67z m8 -530 c0 -69 -32 -127 -104 -183 -75 -60 -80 -52 -52 72 21 89 21 89
69 117 26 15 53 33 59 39 19 19 28 3 28 -45z m-190 -406 c0 -28 -38 -95 -62
-108 -20 -11 -21 -10 -16 27 3 22 16 66 29 99 l22 60 13 -30 c7 -16 13 -38 14
-48z m-651 31 c47 -60 93 -106 134 -133 l49 -33 -76 -17 c-62 -14 -82 -15
-113 -5 -63 21 -173 79 -173 93 1 56 148 134 179 95z m-120 -212 c137 -67 131
-67 398 3 33 9 133 -6 133 -19 0 -12 -83 -69 -180 -126 -67 -38 -93 -48 -125
-47 -66 3 -259 80 -337 134 -26 19 -26 20 -11 59 9 22 20 40 24 40 4 0 48 -20
98 -44z"/>
</g>
</svg>
